<?xml version="1.0" encoding="UTF-8"?>
<svg width="512" height="512" viewBox="0 0 512 512" xmlns="http://www.w3.org/2000/svg">
    <defs>
        <linearGradient id="grad" x1="0%" y1="0%" x2="100%" y2="100%">
            <stop offset="0%" style="stop-color:#4CAF50;stop-opacity:1" />
            <stop offset="100%" style="stop-color:#45a049;stop-opacity:1" />
        </linearGradient>
    </defs>
    <rect x="0" y="0" width="512" height="512" rx="128" fill="url(#grad)"/>
    <g fill="white" transform="translate(128, 128) scale(0.5)">
        <path d="M256 96c-109.8 0-198.9 89.1-198.9 198.9 0 43.8 14.1 84.3 38 117.1l-25.2 25.2c-4.7 4.7-4.7 12.3 0 17l39.6 39.6c4.7 4.7 12.3 4.7 17 0l25.2-25.2c32.8 23.9 73.3 38 117.1 38 109.8 0 198.9-89.1 198.9-198.9S365.8 96 256 96zm0 358c-87.8 0-159.1-71.3-159.1-159.1S168.2 135.8 256 135.8s159.1 71.3 159.1 159.1S343.8 454 256 454z"/>
        <path d="M256 176c-66.2 0-120 53.8-120 120s53.8 120 120 120 120-53.8 120-120-53.8-120-120-120zm0 200c-44.1 0-80-35.9-80-80s35.9-80 80-80 80 35.9 80 80-35.9 80-80 80z"/>
        <circle cx="256" cy="296" r="40"/>
    </g>
</svg>
